<svg width="31" height="31" viewBox="0 0 31 31" fill="none" xmlns="http://www.w3.org/2000/svg">
<path fill-rule="evenodd" clip-rule="evenodd" d="M17.0643 6.8182C18.7389 6.48894 20.2428 6.7278 21.5094 7.33909C21.5785 7.37242 21.6452 7.40603 21.7096 7.43977L22.9508 6.93748C24.2291 6.42019 25.58 7.50218 25.3553 8.86186C25.964 9.53054 26.0606 10.6478 25.238 11.3837L23.965 12.5223C23.9806 13.9225 23.7886 15.1778 23.1989 16.5771C22.1478 19.0714 20.6405 20.9472 18.7964 22.252C17.493 23.1743 16.0983 23.7599 14.6929 24.075C13.7844 24.2787 13.0138 24.3422 12.4467 24.3281C10.7158 24.3476 9.12134 23.9815 7.69878 23.3588C6.85236 22.9883 6.23055 22.6055 5.85687 22.3168C4.50596 21.2732 5.27505 19.1106 6.98155 19.1544C7.30915 19.1628 7.616 19.158 7.90298 19.1413C7.35959 18.4971 7.07115 17.8492 6.95401 17.3161C6.91333 17.131 6.90318 16.9475 6.9198 16.7703C6.80702 16.6343 6.70191 16.4931 6.60447 16.3471C5.91399 15.3122 5.71027 14.2484 5.76745 13.34C5.77158 13.284 5.77312 13.263 5.77515 13.242C5.77637 13.2294 5.77777 13.2168 5.78 13.1967L5.78 13.1966C5.81105 12.9328 5.89582 12.6947 6.02029 12.4884C5.65463 11.3235 5.73763 10.1522 6.08212 9.04938C6.19417 8.69068 6.31212 8.41015 6.40785 8.22188C6.9782 7.10012 8.50546 6.91806 9.32352 7.87431C10.6116 9.37994 11.8838 10.2751 13.0972 10.7089C13.2477 10.7627 13.3924 10.808 13.5307 10.8454C13.9169 8.40741 15.5217 6.94925 17.0643 6.8182ZM15.2545 12.913C15.2545 12.913 12.0611 13.6536 8.49771 9.48823C8.49771 9.48823 7.10935 12.2188 9.51605 13.8847C9.51605 13.8847 8.72965 14.0236 8.08104 13.5611C8.08104 13.5611 7.80326 15.9211 10.6727 16.8467H9.14549C9.14549 16.8467 9.56244 18.7442 12.2464 19.1606C12.2464 19.1606 11.1358 20.6414 7.52575 20.5489C7.52575 20.5489 9.56244 22.1223 12.6633 22.0759C12.6633 22.0759 18.4014 22.3537 21.132 15.8744C21.8034 14.281 21.7337 12.7741 21.6873 12.0333L23.446 10.4602L21.6873 10.7841C21.6873 10.7841 22.8907 9.9049 23.0298 9.07183L21.0859 9.85851C21.0859 9.85851 19.6281 8.5396 17.152 9.07183C17.1517 9.07183 14.8845 9.53462 15.2545 12.913Z" fill="#37474F"/>
<mask id="mask0_0_73" style="mask-type:luminance" maskUnits="userSpaceOnUse" x="5" y="6" width="21" height="19">
<path fill-rule="evenodd" clip-rule="evenodd" d="M17.0643 6.8182C18.7389 6.48894 20.2428 6.7278 21.5094 7.33909C21.5785 7.37242 21.6452 7.40603 21.7096 7.43977L22.9508 6.93748C24.2291 6.42019 25.58 7.50218 25.3553 8.86186C25.964 9.53054 26.0606 10.6478 25.238 11.3837L23.965 12.5223C23.9806 13.9225 23.7886 15.1778 23.1989 16.5771C22.1478 19.0714 20.6405 20.9472 18.7964 22.252C17.493 23.1743 16.0983 23.7599 14.6929 24.075C13.7844 24.2787 13.0138 24.3422 12.4467 24.3281C10.7158 24.3476 9.12134 23.9815 7.69878 23.3588C6.85236 22.9883 6.23055 22.6055 5.85687 22.3168C4.50596 21.2732 5.27505 19.1106 6.98155 19.1544C7.30915 19.1628 7.616 19.158 7.90298 19.1413C7.35959 18.4971 7.07115 17.8492 6.95401 17.3161C6.91333 17.131 6.90318 16.9475 6.9198 16.7703C6.80702 16.6343 6.70191 16.4931 6.60447 16.3471C5.91399 15.3122 5.71027 14.2484 5.76745 13.34C5.77158 13.284 5.77312 13.263 5.77515 13.242C5.77637 13.2294 5.77777 13.2168 5.78 13.1967L5.78 13.1966C5.81105 12.9328 5.89582 12.6947 6.02029 12.4884C5.65463 11.3235 5.73763 10.1522 6.08212 9.04938C6.19417 8.69068 6.31212 8.41015 6.40785 8.22188C6.9782 7.10012 8.50546 6.91806 9.32352 7.87431C10.6116 9.37994 11.8838 10.2751 13.0972 10.7089C13.2477 10.7627 13.3924 10.808 13.5307 10.8454C13.9169 8.40741 15.5217 6.94925 17.0643 6.8182ZM15.2545 12.913C15.2545 12.913 12.0611 13.6536 8.49771 9.48823C8.49771 9.48823 7.10935 12.2188 9.51605 13.8847C9.51605 13.8847 8.72965 14.0236 8.08104 13.5611C8.08104 13.5611 7.80326 15.9211 10.6727 16.8467H9.14549C9.14549 16.8467 9.56244 18.7442 12.2464 19.1606C12.2464 19.1606 11.1358 20.6414 7.52575 20.5489C7.52575 20.5489 9.56244 22.1223 12.6633 22.0759C12.6633 22.0759 18.4014 22.3537 21.132 15.8744C21.8034 14.281 21.7337 12.7741 21.6873 12.0333L23.446 10.4602L21.6873 10.7841C21.6873 10.7841 22.8907 9.9049 23.0298 9.07183L21.0859 9.85851C21.0859 9.85851 19.6281 8.5396 17.152 9.07183C17.1517 9.07183 14.8845 9.53462 15.2545 12.913Z" fill="white"/>
</mask>
<g mask="url(#mask0_0_73)">
</g>
</svg>
