<svg width="68" height="89" viewBox="0 0 68 89" fill="none" xmlns="http://www.w3.org/2000/svg">
<path d="M0 70.2732V88.8382H67.6676V70.2732C67.6649 68.2034 66.8416 66.2191 65.378 64.7556C63.9144 63.292 61.9302 62.4686 59.8604 62.4659H7.80722C5.73743 62.4686 3.75318 63.292 2.28962 64.7556C0.82606 66.2191 0.00266125 68.2034 0 70.2732H0ZM5.20481 70.2732C5.20581 69.5833 5.48031 68.9219 5.96814 68.4341C6.45597 67.9463 7.11733 67.6718 7.80722 67.6708H10.4096V83.6372H5.20481V70.2732ZM15.6157 67.6708H22.3455L33.8338 79.1591L45.3221 67.6708H52.0481V83.6372H15.6157V67.6708ZM62.4628 70.2732V83.6334H57.258V67.667H59.8604C60.5509 67.668 61.2129 67.943 61.7008 68.4317C62.1887 68.9203 62.4628 69.5826 62.4628 70.2732ZM37.9612 67.6708L33.8338 71.7982L29.7064 67.6708H37.9612Z" fill="#FF6875"/>
<path d="M53.3053 52.0513H57.2618V46.8465H59.8642C61.9339 46.8438 63.9182 46.0204 65.3818 44.5568C66.8453 43.0933 67.6687 41.109 67.6714 39.0392V33.8344C67.6711 24.8606 64.1059 16.2545 57.7603 9.90936C51.4146 3.56417 42.8082 -0.000333407 33.8344 2.33902e-08C24.8607 0.000333454 16.2545 3.56547 9.90936 9.91113C3.56417 16.2568 -0.000333407 24.8632 2.33902e-08 33.8369L2.33902e-08 39.0418C0.00266128 41.1115 0.82606 43.0958 2.28962 44.5594C3.75318 46.0229 5.73743 46.8463 7.80722 46.849H11.7498C13.1972 50.9482 15.7572 54.5635 19.1431 57.2901C22.5289 60.0167 26.607 61.7468 30.9206 62.2868C35.2341 62.8268 39.6128 62.1554 43.5664 60.3476C47.5199 58.5398 50.8921 55.6672 53.3053 52.0513ZM59.8642 41.6404H57.1109C57.2078 40.7763 57.2565 39.9075 57.2567 39.038V33.8332C57.2565 32.9637 57.2078 32.0949 57.1109 31.2308H59.8591C60.549 31.2318 61.2104 31.5063 61.6982 31.9941C62.186 32.4819 62.4605 33.1433 62.4615 33.8332V39.038C62.4619 39.7288 62.188 40.3914 61.7 40.8803C61.212 41.3692 60.5499 41.6444 59.8591 41.6454L59.8642 41.6404ZM33.8338 5.20796C40.0915 5.21601 46.1749 7.27056 51.1561 11.0583C56.1373 14.846 59.7429 20.1589 61.4231 26.1869C60.9088 26.0821 60.3852 26.0295 59.8604 26.0297H55.9165C54.302 21.463 51.3113 17.5091 47.3564 14.7126C43.4015 11.916 38.6769 10.4144 33.8332 10.4144C28.9894 10.4144 24.2648 11.916 20.3099 14.7126C16.355 17.5091 13.3644 21.463 11.7498 26.0297H7.80722C7.28236 26.0295 6.75882 26.0821 6.24452 26.1869C7.92471 20.1589 11.5304 14.846 16.5115 11.0583C21.4927 7.27056 27.5761 5.21601 33.8338 5.20796ZM48.7794 23.4323C47.0967 25.8362 44.8603 27.8 42.2591 29.158C39.6579 30.5159 36.7681 31.2281 33.8338 31.2345H15.8018C16.3228 27.616 17.9209 24.2381 20.388 21.5402C22.8551 18.8423 26.077 16.9493 29.6347 16.1076C33.1923 15.2659 36.9209 15.5144 40.3354 16.8208C43.7499 18.1272 46.6921 20.4309 48.7794 23.4323ZM7.80722 41.6454C7.11733 41.6444 6.45597 41.3699 5.96814 40.8821C5.48031 40.3943 5.20581 39.7329 5.20481 39.043V33.8382C5.20581 33.1483 5.48031 32.487 5.96814 31.9991C6.45597 31.5113 7.11733 31.2368 7.80722 31.2358H10.5605C10.4636 32.0999 10.4149 32.9687 10.4147 33.8382V39.043C10.4149 39.9125 10.4636 40.7813 10.5605 41.6454H7.80722ZM15.6144 39.043V36.4406H33.8338C37.1293 36.4345 40.3866 35.7356 43.3946 34.3893C46.4025 33.043 49.0938 31.0794 51.2938 28.6258C51.7996 30.3166 52.0558 32.0722 52.0544 33.8369V39.0418C52.0573 41.7429 51.4559 44.4104 50.2943 46.849H41.641L39.3504 44.5634C37.8861 46.0275 35.9001 46.85 33.8294 46.85C31.7587 46.85 29.7727 46.0275 28.3084 44.5634L24.6286 48.2432C26.8435 50.458 29.7829 51.7996 32.9072 52.0218C36.0316 52.244 39.1313 51.3318 41.6373 49.4526V52.0513H46.5655C44.0042 54.5603 40.7592 56.2573 37.2373 56.9295C33.7154 57.6017 30.0734 57.2191 26.7681 55.8298C23.4628 54.4404 20.6412 52.1061 18.6572 49.1195C16.6733 46.133 15.6152 42.6272 15.6157 39.0418L15.6144 39.043Z" fill="#FF6875"/>
</svg>
