<svg width="191" height="165" viewBox="0 0 191 165" fill="none" xmlns="http://www.w3.org/2000/svg">
<path d="M8.208 152.913C6.948 152.913 5.814 152.697 4.806 152.265C3.798 151.815 3.006 151.185 2.43 150.375C1.854 149.565 1.566 148.62 1.566 147.54H4.86C4.932 148.35 5.247 149.016 5.805 149.538C6.381 150.06 7.182 150.321 8.208 150.321C9.27 150.321 10.098 150.069 10.692 149.565C11.286 149.043 11.583 148.377 11.583 147.567C11.583 146.937 11.394 146.424 11.016 146.028C10.656 145.632 10.197 145.326 9.639 145.11C9.099 144.894 8.343 144.66 7.371 144.408C6.147 144.084 5.148 143.76 4.374 143.436C3.618 143.094 2.97 142.572 2.43 141.87C1.89 141.168 1.62 140.232 1.62 139.062C1.62 137.982 1.89 137.037 2.43 136.227C2.97 135.417 3.726 134.796 4.698 134.364C5.67 133.932 6.795 133.716 8.073 133.716C9.891 133.716 11.376 134.175 12.528 135.093C13.698 135.993 14.346 137.235 14.472 138.819H11.07C11.016 138.135 10.692 137.55 10.098 137.064C9.504 136.578 8.721 136.335 7.749 136.335C6.867 136.335 6.147 136.56 5.589 137.01C5.031 137.46 4.752 138.108 4.752 138.954C4.752 139.53 4.923 140.007 5.265 140.385C5.625 140.745 6.075 141.033 6.615 141.249C7.155 141.465 7.893 141.699 8.829 141.951C10.071 142.293 11.079 142.635 11.853 142.977C12.645 143.319 13.311 143.85 13.851 144.57C14.409 145.272 14.688 146.217 14.688 147.405C14.688 148.359 14.427 149.259 13.905 150.105C13.401 150.951 12.654 151.635 11.664 152.157C10.692 152.661 9.54 152.913 8.208 152.913ZM21.3709 133.959V145.92C21.3709 147.342 21.7399 148.413 22.4779 149.133C23.2339 149.853 24.2779 150.213 25.6099 150.213C26.9599 150.213 28.0039 149.853 28.7419 149.133C29.4979 148.413 29.8759 147.342 29.8759 145.92V133.959H32.9539V145.866C32.9539 147.396 32.6209 148.692 31.9549 149.754C31.2889 150.816 30.3979 151.608 29.2819 152.13C28.1659 152.652 26.9329 152.913 25.5829 152.913C24.2329 152.913 22.9999 152.652 21.8839 152.13C20.7859 151.608 19.9129 150.816 19.2649 149.754C18.6169 148.692 18.2929 147.396 18.2929 145.866V133.959H21.3709ZM50.0835 139.548C50.0835 140.502 49.8585 141.402 49.4085 142.248C48.9585 143.094 48.2385 143.787 47.2485 144.327C46.2585 144.849 44.9895 145.11 43.4415 145.11H40.0395V152.724H36.9615V133.959H43.4415C44.8815 133.959 46.0965 134.211 47.0865 134.715C48.0945 135.201 48.8415 135.867 49.3275 136.713C49.8315 137.559 50.0835 138.504 50.0835 139.548ZM43.4415 142.599C44.6115 142.599 45.4845 142.338 46.0605 141.816C46.6365 141.276 46.9245 140.52 46.9245 139.548C46.9245 137.496 45.7635 136.47 43.4415 136.47H40.0395V142.599H43.4415ZM66.1411 139.548C66.1411 140.502 65.9161 141.402 65.4661 142.248C65.0161 143.094 64.2961 143.787 63.3061 144.327C62.3161 144.849 61.0471 145.11 59.4991 145.11H56.0971V152.724H53.0191V133.959H59.4991C60.9391 133.959 62.1541 134.211 63.1441 134.715C64.1521 135.201 64.8991 135.867 65.3851 136.713C65.8891 137.559 66.1411 138.504 66.1411 139.548ZM59.4991 142.599C60.6691 142.599 61.5421 142.338 62.1181 141.816C62.6941 141.276 62.9821 140.52 62.9821 139.548C62.9821 137.496 61.8211 136.47 59.4991 136.47H56.0971V142.599H59.4991ZM77.6358 152.913C75.8898 152.913 74.2788 152.508 72.8028 151.698C71.3448 150.87 70.1838 149.727 69.3198 148.269C68.4738 146.793 68.0508 145.137 68.0508 143.301C68.0508 141.465 68.4738 139.818 69.3198 138.36C70.1838 136.902 71.3448 135.768 72.8028 134.958C74.2788 134.13 75.8898 133.716 77.6358 133.716C79.3998 133.716 81.0108 134.13 82.4688 134.958C83.9448 135.768 85.1058 136.902 85.9518 138.36C86.7978 139.818 87.2208 141.465 87.2208 143.301C87.2208 145.137 86.7978 146.793 85.9518 148.269C85.1058 149.727 83.9448 150.87 82.4688 151.698C81.0108 152.508 79.3998 152.913 77.6358 152.913ZM77.6358 150.24C78.8778 150.24 79.9848 149.961 80.9568 149.403C81.9288 148.827 82.6848 148.017 83.2248 146.973C83.7828 145.911 84.0618 144.687 84.0618 143.301C84.0618 141.915 83.7828 140.7 83.2248 139.656C82.6848 138.612 81.9288 137.811 80.9568 137.253C79.9848 136.695 78.8778 136.416 77.6358 136.416C76.3938 136.416 75.2868 136.695 74.3148 137.253C73.3428 137.811 72.5778 138.612 72.0198 139.656C71.4798 140.7 71.2098 141.915 71.2098 143.301C71.2098 144.687 71.4798 145.911 72.0198 146.973C72.5778 148.017 73.3428 148.827 74.3148 149.403C75.2868 149.961 76.3938 150.24 77.6358 150.24ZM99.9966 152.724L95.6766 145.218H93.3276V152.724H90.2496V133.959H96.7296C98.1696 133.959 99.3846 134.211 100.375 134.715C101.383 135.219 102.13 135.894 102.616 136.74C103.12 137.586 103.372 138.531 103.372 139.575C103.372 140.799 103.012 141.915 102.292 142.923C101.59 143.913 100.501 144.588 99.0246 144.948L103.669 152.724H99.9966ZM93.3276 142.761H96.7296C97.8816 142.761 98.7456 142.473 99.3216 141.897C99.9156 141.321 100.213 140.547 100.213 139.575C100.213 138.603 99.9246 137.847 99.3486 137.307C98.7726 136.749 97.8996 136.47 96.7296 136.47H93.3276V142.761ZM119.432 133.959V136.47H114.437V152.724H111.359V136.47H106.337V133.959H119.432ZM130.859 148.539C132.587 147.045 133.946 145.821 134.936 144.867C135.944 143.895 136.781 142.887 137.447 141.843C138.113 140.799 138.446 139.755 138.446 138.711C138.446 137.631 138.185 136.785 137.663 136.173C137.159 135.561 136.358 135.255 135.26 135.255C134.198 135.255 133.37 135.597 132.776 136.281C132.2 136.947 131.894 137.847 131.858 138.981H128.888C128.942 136.929 129.554 135.363 130.724 134.283C131.912 133.185 133.415 132.636 135.233 132.636C137.195 132.636 138.725 133.176 139.823 134.256C140.939 135.336 141.497 136.776 141.497 138.576C141.497 139.872 141.164 141.123 140.498 142.329C139.85 143.517 139.067 144.588 138.149 145.542C137.249 146.478 136.097 147.567 134.693 148.809L133.478 149.889H142.037V152.454H128.915V150.213L130.859 148.539ZM144.363 148.62V146.298L153.435 133.284H157.161V145.947H159.672V148.62H157.161V152.724H154.137V148.62H144.363ZM154.272 136.416L147.9 145.947H154.272V136.416ZM172.618 127.236L165.274 157.449H162.25L169.567 127.236H172.618ZM188.566 135.417L181.06 152.724H177.955L185.542 135.741H175.552V133.122H188.566V135.417Z" fill="#22262A"/>
<path d="M50.1467 70.2732V88.8382H117.814V70.2732C117.812 68.2034 116.988 66.2191 115.525 64.7556C114.061 63.292 112.077 62.4686 110.007 62.4659H57.9539C55.8842 62.4686 53.8999 63.292 52.4363 64.7556C50.9728 66.2191 50.1494 68.2034 50.1467 70.2732V70.2732ZM55.3515 70.2732C55.3525 69.5833 55.627 68.9219 56.1149 68.4341C56.6027 67.9463 57.2641 67.6718 57.9539 67.6708H60.5564V83.6372H55.3515V70.2732ZM65.7624 67.6708H72.4922L83.9805 79.1591L95.4688 67.6708H102.195V83.6372H65.7624V67.6708ZM112.61 70.2732V83.6334H107.405V67.667H110.007C110.698 67.668 111.36 67.943 111.848 68.4317C112.335 68.9203 112.61 69.5826 112.61 70.2732ZM88.1079 67.6708L83.9805 71.7982L79.8531 67.6708H88.1079Z" fill="#FF6875"/>
<path d="M103.452 52.0513H107.408V46.8465H110.011C112.081 46.8438 114.065 46.0204 115.528 44.5568C116.992 43.0933 117.815 41.109 117.818 39.0392V33.8344C117.818 24.8606 114.253 16.2545 107.907 9.90936C101.561 3.56417 92.9549 -0.000333407 83.9812 2.33902e-08C75.0074 0.000333454 66.4013 3.56547 60.0561 9.91113C53.7109 16.2568 50.1464 24.8632 50.1467 33.8369L50.1467 39.0418C50.1494 41.1115 50.9728 43.0958 52.4363 44.5594C53.8999 46.0229 55.8842 46.8463 57.9539 46.849H61.8965C63.3439 50.9482 65.9039 54.5635 69.2898 57.2901C72.6757 60.0167 76.7537 61.7468 81.0673 62.2868C85.3808 62.8268 89.7596 62.1554 93.7131 60.3476C97.6666 58.5398 101.039 55.6672 103.452 52.0513ZM110.011 41.6404H107.258C107.355 40.7763 107.403 39.9075 107.403 39.038V33.8332C107.403 32.9637 107.355 32.0949 107.258 31.2308H110.006C110.696 31.2318 111.357 31.5063 111.845 31.9941C112.333 32.4819 112.607 33.1433 112.608 33.8332V39.038C112.609 39.7288 112.335 40.3914 111.847 40.8803C111.359 41.3692 110.697 41.6444 110.006 41.6454L110.011 41.6404ZM83.9805 5.20796C90.2382 5.21601 96.3216 7.27056 101.303 11.0583C106.284 14.846 109.89 20.1589 111.57 26.1869C111.056 26.0821 110.532 26.0295 110.007 26.0297H106.063C104.449 21.463 101.458 17.5091 97.5032 14.7126C93.5483 11.916 88.8237 10.4144 83.9799 10.4144C79.1362 10.4144 74.4115 11.916 70.4566 14.7126C66.5017 17.5091 63.5111 21.463 61.8965 26.0297H57.9539C57.4291 26.0295 56.9055 26.0821 56.3912 26.1869C58.0714 20.1589 61.6771 14.846 66.6583 11.0583C71.6395 7.27056 77.7228 5.21601 83.9805 5.20796ZM98.9261 23.4323C97.2434 25.8362 95.007 27.8 92.4058 29.158C89.8046 30.5159 86.9149 31.2281 83.9805 31.2345H65.9485C66.4695 27.616 68.0676 24.2381 70.5347 21.5402C73.0018 18.8423 76.2238 16.9493 79.7814 16.1076C83.339 15.2659 87.0676 15.5144 90.4821 16.8208C93.8966 18.1272 96.8389 20.4309 98.9261 23.4323ZM57.9539 41.6454C57.2641 41.6444 56.6027 41.3699 56.1149 40.8821C55.627 40.3943 55.3525 39.7329 55.3515 39.043V33.8382C55.3525 33.1483 55.627 32.487 56.1149 31.9991C56.6027 31.5113 57.2641 31.2368 57.9539 31.2358H60.7072C60.6103 32.0999 60.5616 32.9687 60.5614 33.8382V39.043C60.5616 39.9125 60.6103 40.7813 60.7072 41.6454H57.9539ZM65.7612 39.043V36.4406H83.9805C87.276 36.4345 90.5334 35.7356 93.5413 34.3893C96.5492 33.043 99.2405 31.0794 101.441 28.6258C101.946 30.3166 102.203 32.0722 102.201 33.8369V39.0418C102.204 41.7429 101.603 44.4104 100.441 46.849H91.7878L89.4971 44.5634C88.0328 46.0275 86.0469 46.85 83.9761 46.85C81.9054 46.85 79.9195 46.0275 78.4551 44.5634L74.7753 48.2432C76.9902 50.458 79.9296 51.7996 83.054 52.0218C86.1783 52.244 89.278 51.3318 91.784 49.4526V52.0513H96.7122C94.1509 54.5603 90.9059 56.2573 87.384 56.9295C83.8621 57.6017 80.2202 57.2191 76.9148 55.8298C73.6095 54.4404 70.788 52.1061 68.804 49.1195C66.82 46.133 65.7619 42.6272 65.7624 39.0418L65.7612 39.043Z" fill="#FF6875"/>
</svg>
