<svg width="16" height="16" viewBox="0 0 16 16" fill="none" xmlns="http://www.w3.org/2000/svg">
  <path d="M7.79167 0C3.48845 0 0 3.48845 0 7.79167C0 12.0949 3.48845 15.5833 7.79167 15.5833C11.8412 15.5833 15.1687 12.4945 15.5474 8.54401C15.5651 8.36015 15.4706 8.18368 15.3079 8.09637C15.1451 8.00907 14.9458 8.02799 14.8024 8.14437C14.0144 8.78382 13.0109 9.16667 11.9167 9.16667C9.38536 9.16667 7.33333 7.11464 7.33333 4.58333C7.33333 3.0799 8.05672 1.74555 9.17637 0.909027C9.32441 0.798422 9.39155 0.609734 9.34664 0.430478C9.30174 0.251223 9.15357 0.116469 8.97087 0.0887188C8.58607 0.03027 8.19226 0 7.79167 0Z" fill="#555555" />
</svg>