<svg
  width="60"
  height="60"
  viewBox="0 0 60 60"
  fill="none"
  xmlns="http://www.w3.org/2000/svg"
>
  <path
    fill-rule="evenodd"
    clip-rule="evenodd"
    d="M52.5254 25.4282L52.5319 34.4854C52.4681 35.3483 52.3859 36.2101 52.2853 37.0703C52.1171 38.5088 50.9477 39.6692 49.4792 39.8333C44.8798 40.3474 40.1203 40.3474 35.5209 39.8333C34.0524 39.6692 32.883 38.5089 32.7147 37.0703C32.1653 32.3728 32.1653 27.6273 32.7147 22.9297C32.883 21.4912 34.0524 20.3309 35.5209 20.1667C40.1203 19.6527 44.8798 19.6527 49.4792 20.1667C50.9477 20.3309 52.1171 21.4912 52.2853 22.9297C52.3826 23.7612 52.4626 24.5943 52.5254 25.4282ZM42.5 26.25C40.429 26.25 38.75 27.929 38.75 30C38.75 32.0711 40.429 33.75 42.5 33.75C44.5711 33.75 46.25 32.0711 46.25 30C46.25 27.929 44.5711 26.25 42.5 26.25Z"
    fill="#299764"
  />
  <path
    d="M51.009 15.0993C51.3977 15.7725 50.6682 16.5263 49.8957 16.4399C45.0195 15.8949 39.9805 15.8949 35.1043 16.4399C31.931 16.7946 29.3645 19.2935 28.9901 22.4941C28.4069 27.4811 28.4069 32.519 28.9901 37.506C29.3645 40.7066 31.931 43.2055 35.1043 43.5601C39.9806 44.1051 45.0195 44.1051 49.8957 43.5601C50.6733 43.4732 51.4088 44.2322 51.0164 44.9092C49.0699 48.2662 45.5996 50.6092 41.5671 51.0336L39.9374 51.205C31.6603 52.0761 23.3117 52.0186 15.0473 51.0338L13.9674 50.9051C9.51212 50.3742 5.982 46.8933 5.38857 42.4459C4.28633 34.1853 4.28633 25.8148 5.38857 17.5542C5.982 13.1067 9.51212 9.62586 13.9674 9.09494L15.0473 8.96626C23.3117 7.98145 31.6603 7.92401 39.9374 8.79502L41.5671 8.96651C45.603 9.39122 49.0678 11.7377 51.009 15.0993Z"
    fill="#299764"
  />
</svg>
