<svg
  width="21"
  height="21"
  viewBox="0 0 21 21"
  fill="none"
  xmlns="http://www.w3.org/2000/svg"
>
  <path
    fill-rule="evenodd"
    clip-rule="evenodd"
    d="M20.58 10.7387C20.58 9.99413 20.5132 9.27822 20.3891 8.59094H10.5V12.6525H16.1509C15.9075 13.965 15.1677 15.0771 14.0557 15.8216V18.4562H17.4491C19.4346 16.6282 20.58 13.9364 20.58 10.7387Z"
    fill="#4285F4"
  />
  <path
    fill-rule="evenodd"
    clip-rule="evenodd"
    d="M10.4995 21C13.3345 21 15.7114 20.0597 17.4486 18.4561L14.0552 15.8215C13.115 16.4515 11.9123 16.8238 10.4995 16.8238C7.76476 16.8238 5.44998 14.9768 4.62429 12.4949H1.11633V15.2154C2.84406 18.647 6.39498 21 10.4995 21Z"
    fill="#34A853"
  />
  <path
    fill-rule="evenodd"
    clip-rule="evenodd"
    d="M4.62478 12.495C4.41478 11.865 4.29546 11.192 4.29546 10.4999C4.29546 9.8079 4.41478 9.13495 4.62478 8.50495V5.78448H1.11682C0.405683 7.20199 0 8.80563 0 10.4999C0 12.1943 0.405683 13.7979 1.11682 15.2154L4.62478 12.495Z"
    fill="#FBBC05"
  />
  <path
    fill-rule="evenodd"
    clip-rule="evenodd"
    d="M10.4995 4.17615C12.0411 4.17615 13.4252 4.70592 14.5134 5.74638L17.525 2.73478C15.7066 1.04046 13.3298 0 10.4995 0C6.39498 0 2.84406 2.35296 1.11633 5.78456L4.62429 8.50502C5.44998 6.02319 7.76476 4.17615 10.4995 4.17615Z"
    fill="#EA4335"
  />
</svg>
