<svg width="20" height="20" viewBox="0 0 20 20" fill="none" xmlns="http://www.w3.org/2000/svg">
<path fill-rule="evenodd" clip-rule="evenodd" d="M11.875 2.08333C11.875 1.96827 11.7817 1.875 11.6666 1.875H5.83329C4.56764 1.875 3.54163 2.90102 3.54163 4.16667V15.8333C3.54163 17.099 4.56764 18.125 5.83329 18.125H14.1666C15.4323 18.125 16.4583 17.099 16.4583 15.8333V7.62255C16.4583 7.50749 16.365 7.41422 16.25 7.41422H12.5C12.1548 7.41422 11.875 7.13439 11.875 6.78922V2.08333ZM9.99996 8.33333C9.07949 8.33333 8.33329 9.07953 8.33329 10C8.33329 10.9205 9.07949 11.6667 9.99996 11.6667C10.9204 11.6667 11.6666 10.9205 11.6666 10C11.6666 9.07953 10.9204 8.33333 9.99996 8.33333ZM6.66663 15.4167C6.66663 14.036 7.78591 12.9167 9.16663 12.9167H10.8333C12.214 12.9167 13.3333 14.036 13.3333 15.4167C13.3333 15.8769 12.9602 16.25 12.5 16.25H7.49996C7.03972 16.25 6.66663 15.8769 6.66663 15.4167Z" fill="white"/>
<path d="M13.125 2.35345C13.125 2.1997 13.2855 2.10208 13.4051 2.19866C13.5059 2.28 13.5965 2.3753 13.6737 2.48296L16.1847 5.98121C16.2419 6.06085 16.1799 6.16422 16.0819 6.16422H13.3333C13.2182 6.16422 13.125 6.07094 13.125 5.95588V2.35345Z" fill="white"/>
</svg>
