<svg
  width="69"
  height="79"
  viewBox="0 0 69 79"
  fill="none"
  xmlns="http://www.w3.org/2000/svg"
>
  <path
    d="M55.5089 16.5812L51.7373 21.4252C57.0833 25.5691 60.7676 31.4915 62.1219 38.1185C63.4763 44.7456 62.4111 51.6386 59.1195 57.5477C55.8279 63.4568 50.5279 67.9908 44.1804 70.3277C37.8328 72.6645 30.858 72.6495 24.5206 70.2852C18.1832 67.921 12.9028 63.3642 9.63674 57.4409C6.3707 51.5176 5.33529 44.6201 6.71824 37.999C8.10118 31.3778 11.8109 25.4714 17.1748 21.3506C22.5388 17.2299 29.2017 15.1676 35.9556 15.5378L30.649 21.1046L34.5853 24.8612L42.962 16.0607L46.7147 12.1194L42.7847 8.37799L33.9906 0L30.2353 3.94133L35.9632 9.39758C27.1777 8.99751 18.5727 11.9777 11.9164 17.7256C5.26015 23.4736 1.05828 31.5527 0.174298 40.3027C-0.709687 49.0528 1.79135 57.8091 7.16345 64.7722C12.5355 71.7353 20.3706 76.3763 29.0586 77.7416C30.8513 78.0249 32.6634 78.1674 34.4784 78.1677C41.6435 78.1499 48.6244 75.896 54.4472 71.7205C60.2699 67.545 64.6441 61.6561 66.9596 54.8754C69.2751 48.0947 69.4163 40.7603 67.3636 33.8955C65.3109 27.0307 61.1666 20.9778 55.5089 16.5812Z"
    fill="#FF6875"
  />
  <path
    d="M37.7752 61.3049V57.7721C41.9641 57.3045 46.0387 54.6593 46.0387 49.6355C46.0387 42.8102 39.6924 42.0282 35.0571 41.4574C32.0939 41.1029 29.8246 40.6918 29.8246 38.8965C29.8246 36.3997 33.3448 36.1307 34.8534 36.1307C37.0988 36.1307 39.495 37.1867 40.3097 38.5332L40.546 38.9254L45.1977 36.7706L44.9676 36.3017C44.2772 34.9366 43.257 33.7656 41.9995 32.8947C40.742 32.0238 39.287 31.4806 37.7664 31.3143V28.2028H32.3227V31.2992C27.2474 32.0536 24.2326 34.8647 24.2326 38.8953C24.2326 45.4666 30.1993 46.133 34.553 46.622C38.4327 47.0796 40.238 48.0376 40.238 49.6393C40.238 52.6905 36.0126 52.9281 34.7176 52.9281C31.8349 52.9281 29.0602 51.4899 28.2506 49.579L28.0507 49.1075L22.9993 51.2485L23.2004 51.72C24.6978 55.2263 27.93 57.4226 32.329 57.9419V61.3049H37.7752Z"
    fill="#FF6875"
  />
</svg>
