<svg width="124" height="16" viewBox="0 0 124 16" fill="none" xmlns="http://www.w3.org/2000/svg">
<path d="M68.6959 5.89893L64.4444 9.4209L65.6952 15.1449L61.5642 11.6869L57.1672 14.9609L58.866 9.3009L54.8999 5.60095L60.0804 5.56091L62.027 0L63.5302 5.63599L68.6959 5.89893Z" fill="#FFC600"/>
<path d="M41.245 5.89893L36.9935 9.4209L38.2443 15.1449L34.1133 11.6869L29.7163 14.9609L31.4151 9.3009L27.449 5.60095L32.6294 5.56091L34.5761 0L36.0793 5.63599L41.245 5.89893Z" fill="#FFC600"/>
<path d="M13.796 5.89893L9.54453 9.4209L10.7953 15.1449L6.66432 11.6869L2.26729 14.9609L3.96609 9.3009L0 5.60095L5.18046 5.56091L7.12712 0L8.63031 5.63599L13.796 5.89893Z" fill="#FFC600"/>
<path d="M96.1454 5.89893L91.8939 9.4209L93.1447 15.1449L89.0137 11.6869L84.6167 14.9609L86.3155 9.3009L82.3494 5.60095L87.5299 5.56091L89.4765 0L90.9797 5.63599L96.1454 5.89893Z" fill="#FFC600"/>
<path d="M123.597 5.89893L119.345 9.4209L120.596 15.1449L116.465 11.6869L112.068 14.9609L113.767 9.3009L109.801 5.60095L114.981 5.56091L116.928 0L118.431 5.63599L123.597 5.89893Z" fill="#C1C8CE"/>
</svg>
