<svg width="30" height="30" viewBox="0 0 30 30" fill="none" xmlns="http://www.w3.org/2000/svg">
<path fill-rule="evenodd" clip-rule="evenodd" d="M23.125 14.0625C21.5345 14.0625 20.1607 15.1751 19.83 16.7309L19.8023 16.8614C19.7174 17.261 19.7024 17.6724 19.7581 18.0771L19.9493 19.468C19.8779 19.4766 19.8065 19.4856 19.7351 19.4949C18.6354 19.6377 17.8125 20.5744 17.8125 21.6832V24.5668C17.8125 25.6757 18.6354 26.6123 19.7351 26.7551C21.9856 27.0474 24.2645 27.0474 26.515 26.7551C27.6147 26.6123 28.4375 25.6757 28.4375 24.5668V21.6832C28.4375 20.5744 27.6147 19.6377 26.515 19.4949C26.4436 19.4856 26.3722 19.4766 26.3008 19.468L26.492 18.0771C26.5477 17.6724 26.5327 17.261 26.4478 16.8614L26.42 16.7309C26.0894 15.1751 24.7156 14.0625 23.125 14.0625ZM24.4301 19.3081L24.6345 17.8217C24.6606 17.6318 24.6536 17.4387 24.6137 17.2511L24.586 17.1206C24.4394 16.4308 23.8303 15.9375 23.125 15.9375C22.4198 15.9375 21.8107 16.4308 21.6641 17.1206L21.6364 17.2511C21.5965 17.4387 21.5895 17.6318 21.6156 17.8217L21.82 19.3081C22.6895 19.2649 23.5606 19.2649 24.4301 19.3081Z" fill="white"/>
<path d="M25.8647 12.4762C25.8966 12.6861 25.6637 12.8378 25.4739 12.7426C24.7629 12.386 23.9633 12.1875 23.125 12.1875C20.6491 12.1875 18.5106 13.9193 17.996 16.3411L17.9683 16.4717C17.8693 16.9372 17.8324 17.413 17.858 17.887C17.8684 18.0807 17.7771 18.2664 17.6203 18.3805C16.5938 19.1271 15.9375 20.3365 15.9375 21.6832V23.4567C15.9375 23.6622 15.772 23.8296 15.5664 23.8309C13.2297 23.8455 10.8926 23.7694 8.56037 23.6026L6.66786 23.4672C5.45722 23.3806 4.45867 22.4856 4.24052 21.2916C3.70595 18.3659 3.61443 15.3764 3.96903 12.4235L4.30964 9.58707C4.47406 8.2179 5.63559 7.1875 7.0146 7.1875H9.87905C11.1195 7.1875 12.125 8.19305 12.125 9.43346C12.125 9.47443 12.1582 9.50765 12.1992 9.50765L23.0903 9.50765C24.4161 9.50765 25.5453 10.471 25.7543 11.7802L25.8344 12.282C25.8447 12.3467 25.8548 12.4114 25.8647 12.4762Z" fill="white"/>
</svg>
